<svg width="300" height="${svg.height}" viewBox="0 0 300 ${svg.height}" fill="none" xmlns="http://www.w3.org/2000/svg"><title id="titleId">Stats</title><defs><linearGradient id="lg0"><stop stop-color="hsl(269, 100%, 80%)" offset="0%"></stop><stop stop-color="hsl(269, 100%, 90%)" offset="100%"></stop></linearGradient><linearGradient id="lg1"><stop stop-color="hsl(269, 100%, 50%)" offset="0%"></stop><stop stop-color="hsl(269, 100%, 83%)" offset="100%"></stop></linearGradient></defs><style>.title{font:600 14px Segoe UI,Ubuntu,sans-serif;fill:#fff;animation:flicker .6s cubic-bezier(.25,1,.5,1) forwards;opacity:0}.dcircle{stroke-width:${circleOptions.strokeWidth}px;stroke-linecap:butt;animation:circles 1s cubic-bezier(.25,1,.5,1) forwards}line{stroke:#30363d}.fadeIn,line{animation:fadeIn 2s cubic-bezier(.61,1,.88,1) forwards}.progress{animation:progress 1s cubic-bezier(.83,0,.17,1) forwards}.flicker{animation:flicker .4s cubic-bezier(.25,1,.5,1) forwards;opacity:0}@keyframes circles{0%{opacity:0;stroke-dashoffset:${circumference};transform:rotate(-90deg)}}@keyframes progress{0%{opacity:0;transform:scaleX(0)}}@keyframes fadeIn{0%{opacity:0}}@keyframes flicker{0%,24%,54%,82%{opacity:.02}36%,92%{opacity:.56}74%{opacity:.25}96%{opacity:.89}to{opacity:1}}text{font:600 10px Segoe UI,Ubuntu,sans-serif;fill:#fff}text.num{font-size:20px;fill:#fff}</style><rect rx="6" x="0" y="0" width="300" height="${svg.height}" fill="#30363d"></rect><rect rx="6" x="1" y="1" width="298" height="${svg.height - 2}" fill="#161b22"></rect><g class="flicker" transform="translate(20, 20)"><text x="${circlePos}" y="${circlePos}" text-anchor="middle" dominant-baseline="middle">${Object.keys(langsObj).length}</text><circle class="phcircle" cx="${circlePos}" cy="${circlePos}" r="${circleOptions.radius}" stroke-dasharray="${circumference.toFixed(4)}" stroke-dashoffset="0" stroke="#30363d" stroke-width="${circleOptions.strokeWidth + 2}"></circle><g>${svg.circles}</g><g>${svg.innercircles}</g></g><line stroke-width="1" x1="20" y1="${languages_height}" x2="280" y2="${languages_height}"></line><line stroke-width="1" x1="100" y1="20" x2="100" y2="${languages_height - 10}"></line><g transform="translate(110, 25)">${svg.points}</g><g transform="translate(100, 20)"><g transform="translate(20,10)"><text style="font: 600 10px monospace">${svg.languages}</text></g><g transform="translate(180, 10)"><text style="font: 400 8px monospace; fill: #8d96a0" text-anchor="end">${svg.perc}</text></g></g><g transform="translate(20, ${languages_height + 10})"><svg class="flicker" width="12" height="12" viewBox="0 0 24 24" fill="none" xmlns="http://www.w3.org/2000/svg"><path d="M12 2.24658C9.6255 2.24668 7.32849 3.0917 5.51999 4.63043C3.71149 6.16916 2.50953 8.3012 2.12916 10.6451C1.74879 12.9889 2.21485 15.3917 3.44393 17.4233C4.67301 19.455 6.58491 20.9831 8.83755 21.7341C9.33755 21.8216 9.52505 21.5216 9.52505 21.2591C9.52505 21.0216 9.51254 20.2341 9.51254 19.3966C7.00003 19.8591 6.35003 18.7841 6.15003 18.2216C5.9281 17.6745 5.5763 17.1897 5.12503 16.8091C4.77503 16.6216 4.27503 16.1591 5.11252 16.1466C5.4323 16.1813 5.73901 16.2926 6.00666 16.471C6.2743 16.6494 6.49499 16.8897 6.65003 17.1716C6.7868 17.4173 6.97071 17.6336 7.19122 17.8081C7.41173 17.9826 7.6645 18.1118 7.93506 18.1885C8.20562 18.2651 8.48864 18.2876 8.76791 18.2547C9.04717 18.2218 9.3172 18.134 9.56251 17.9966C9.6058 17.4882 9.83237 17.0129 10.2 16.6591C7.97503 16.4091 5.65003 15.5466 5.65003 11.7216C5.63597 10.7278 6.00271 9.76619 6.67503 9.03411C6.36931 8.17033 6.40508 7.2224 6.77503 6.38411C6.77503 6.38411 7.6125 6.1216 9.52503 7.40911C11.1613 6.95909 12.8887 6.95909 14.525 7.40911C16.4375 6.10911 17.275 6.38411 17.275 6.38411C17.645 7.22238 17.6808 8.17034 17.375 9.03411C18.0494 9.76494 18.4164 10.7273 18.4 11.7216C18.4 15.5591 16.0625 16.4091 13.8375 16.6591C14.0762 16.901 14.26 17.1914 14.3764 17.5106C14.4929 17.8298 14.5393 18.1704 14.5125 18.5091C14.5125 19.8466 14.5 20.9216 14.5 21.2591C14.5 21.5216 14.6875 21.8341 15.1875 21.7341C17.4362 20.977 19.3426 19.4453 20.5664 17.4126C21.7903 15.3799 22.2519 12.9784 21.8689 10.6368C21.4859 8.29523 20.2832 6.16595 18.4755 4.62909C16.6678 3.09223 14.3727 2.24782 12 2.24658Z" fill="#fff"/></svg><text class="flicker" x="16" y="0" style="font: 600 8px 'Segoe UI', Ubuntu, sans-serif" dominant-baseline="text-before-edge">stars collected</text><text class="flicker num" x="0" y="45" style="animation-delay: .15s" dominant-baseline="text-after-edge">${svg.collectedStarsStr}</text><text class="flicker perc" x="120" y="40" style="font: 400 8px monospace; fill: #8d96a0; animation-delay: .3s" text-anchor="end" dominant-baseline="text-after-edge">goal: ${svg.maxStarsStr}</text><rect class="fadeIn" rx="0" x="0" y="45" width="120" height="2" fill="url(#lg0)" opacity="0.2"></rect><rect class="progress" rx="0" x="0" y="45" width="${svg.starProgressWidth}" height="2" fill="url(#lg1)"></rect></g><g transform="translate(160, ${languages_height + 10})"><svg class="flicker" width="12" height="12" viewBox="0 0 24 24" fill="none" xmlns="http://www.w3.org/2000/svg"><path d="M21.92 11.6C19.9 6.91 16.1 4 12 4C7.90001 4 4.10001 6.91 2.08001 11.6C2.02494 11.7262 1.99652 11.8623 1.99652 12C1.99652 12.1377 2.02494 12.2738 2.08001 12.4C4.10001 17.09 7.90001 20 12 20C16.1 20 19.9 17.09 21.92 12.4C21.9751 12.2738 22.0035 12.1377 22.0035 12C22.0035 11.8623 21.9751 11.7262 21.92 11.6ZM12 18C8.83001 18 5.83001 15.71 4.10001 12C5.83001 8.29 8.83001 6 12 6C15.17 6 18.17 8.29 19.9 12C18.17 15.71 15.17 18 12 18ZM12 8C11.2089 8 10.4355 8.2346 9.77773 8.67412C9.11993 9.11365 8.60724 9.73836 8.30449 10.4693C8.00174 11.2002 7.92252 12.0044 8.07686 12.7804C8.2312 13.5563 8.61217 14.269 9.17158 14.8284C9.73099 15.3878 10.4437 15.7688 11.2196 15.9231C11.9956 16.0775 12.7998 15.9983 13.5307 15.6955C14.2616 15.3928 14.8864 14.8801 15.3259 14.2223C15.7654 13.5645 16 12.7911 16 12C16 10.9391 15.5786 9.92172 14.8284 9.17157C14.0783 8.42143 13.0609 8 12 8ZM12 14C11.6044 14 11.2178 13.8827 10.8889 13.6629C10.56 13.4432 10.3036 13.1308 10.1522 12.7654C10.0009 12.3999 9.96126 11.9978 10.0384 11.6098C10.1156 11.2219 10.3061 10.8655 10.5858 10.5858C10.8655 10.3061 11.2219 10.1156 11.6098 10.0384C11.9978 9.96126 12.3999 10.0009 12.7654 10.1522C13.1308 10.3036 13.4432 10.56 13.6629 10.8889C13.8827 11.2178 14 11.6044 14 12C14 12.5304 13.7893 13.0391 13.4142 13.4142C13.0391 13.7893 12.5304 14 12 14Z" fill="#ffffff"/></svg><text class="flicker" x="16" style="font: 600 8px 'Segoe UI', Ubuntu, sans-serif" dominant-baseline="text-before-edge">profile views</text><text class="flicker num" x="0" y="45" style="animation-delay: .25s" dominant-baseline="text-after-edge">${svg.profileViews}</text></g><g transform="translate(20, ${languages_height + 47 + 20})"><text class="flicker" style="font: 600 8px 'Segoe UI', Ubuntu, sans-serif; fill: #8d96a0; animation-delay: .5s" dominant-baseline="text-before-edge">Account Birthday ・ ${svg.createdAt}</text></g></svg>